<svg xmlns="http://www.w3.org/2000/svg" viewBox="0 0 11 11" role="img" aria-label="Jouzu">
  <circle cx="2.5" cy="2" r="0.43" fill="#22d3ee"/>
  <circle cx="3.5" cy="2" r="0.43" fill="#39c8e8"/>
  <circle cx="4.5" cy="2" r="0.43" fill="#39c8e8"/>
  <circle cx="4.5" cy="3" r="0.43" fill="#39c8e8"/>
  <circle cx="4.5" cy="4" r="0.43" fill="#39c8e8"/>
  <circle cx="4.5" cy="5" r="0.43" fill="#39c8e8"/>
  <circle cx="1.5" cy="6" r="0.43" fill="#22d3ee"/>
  <circle cx="1.5" cy="7" r="0.43" fill="#22d3ee"/>
  <circle cx="2.5" cy="8" r="0.43" fill="#22d3ee"/>
  <circle cx="3.5" cy="8" r="0.43" fill="#39c8e8"/>
  <circle cx="4.5" cy="6" r="0.43" fill="#39c8e8"/>
  <circle cx="4.5" cy="7" r="0.43" fill="#39c8e8"/>
  <circle cx="6.5" cy="2" r="0.43" fill="#ae92c9"/>
  <circle cx="7.5" cy="2" r="0.43" fill="#ae92c9"/>
  <circle cx="7.5" cy="5" r="0.43" fill="#ae92c9"/>
  <circle cx="8.5" cy="2" r="0.43" fill="#c588c2"/>
  <circle cx="8.5" cy="4" r="0.43" fill="#c588c2"/>
  <circle cx="9.5" cy="2" r="0.43" fill="#c588c2"/>
  <circle cx="9.5" cy="3" r="0.43" fill="#c588c2"/>
  <circle cx="6.5" cy="7" r="0.43" fill="#ae92c9"/>
  <circle cx="6.5" cy="8" r="0.43" fill="#ae92c9"/>
  <circle cx="7.5" cy="6" r="0.43" fill="#ae92c9"/>
  <circle cx="7.5" cy="8" r="0.43" fill="#ae92c9"/>
  <circle cx="8.5" cy="8" r="0.43" fill="#c588c2"/>
  <circle cx="9.5" cy="8" r="0.43" fill="#c588c2"/>
</svg>
